G75*
G70*
%OFA0B0*%
%FSLAX24Y24*%
%IPPOS*%
%LPD*%
%AMOC8*
5,1,8,0,0,1.08239X$1,22.5*
%
%ADD10R,0.0820X0.0820*%
%ADD11OC8,0.0820*%
%ADD12C,0.0336*%
D10*
X002302Y001681D03*
D11*
X001302Y001681D03*
X001302Y002681D03*
X002302Y002681D03*
X002302Y003681D03*
X001302Y003681D03*
D12*
X007702Y000681D03*
X009702Y000681D03*
X011702Y000681D03*
X013702Y000681D03*
X015702Y000681D03*
X017702Y000681D03*
X019702Y000681D03*
X021702Y000681D03*
X023702Y000681D03*
X025702Y000681D03*
X027702Y000681D03*
X029702Y000681D03*
X031702Y000681D03*
X033702Y000681D03*
X035702Y000681D03*
X037702Y000681D03*
X039702Y000681D03*
X041702Y000681D03*
X043702Y000681D03*
X045702Y000681D03*
X047702Y000681D03*
X049702Y000681D03*
X051702Y000681D03*
X053702Y000681D03*
X054702Y001681D03*
X056702Y001681D03*
X058702Y001681D03*
X060702Y001681D03*
X062702Y001681D03*
X064702Y001681D03*
X052702Y001681D03*
X050702Y001681D03*
X048702Y001681D03*
X046702Y001681D03*
X044702Y001681D03*
X042702Y001681D03*
X040702Y001681D03*
X038702Y001681D03*
X036702Y001681D03*
X034702Y001681D03*
X032702Y001681D03*
X030702Y001681D03*
X028702Y001681D03*
X026702Y001681D03*
X024702Y001681D03*
X022702Y001681D03*
X020702Y001681D03*
X018702Y001681D03*
X016702Y001681D03*
X014702Y001681D03*
X012702Y001681D03*
X010702Y001681D03*
X008702Y001681D03*
X004952Y001931D03*
X003952Y001931D03*
X005202Y003181D03*
X007702Y003681D03*
X009702Y003681D03*
X011702Y003681D03*
X013702Y003681D03*
X015702Y003681D03*
X017702Y003681D03*
X019702Y003681D03*
X021702Y003681D03*
X023702Y003681D03*
X025702Y003681D03*
X027702Y003681D03*
X029702Y003681D03*
X031702Y003681D03*
X033702Y003681D03*
X035702Y003681D03*
X037702Y003681D03*
X039702Y003681D03*
X041702Y003681D03*
X043702Y003681D03*
X045702Y003681D03*
X047702Y003681D03*
X049702Y003681D03*
X051702Y003681D03*
X053702Y003681D03*
X055702Y003681D03*
X057702Y003681D03*
X059702Y003681D03*
X061702Y003681D03*
X063702Y003681D03*
X064702Y003681D03*
X054702Y004681D03*
X052702Y004681D03*
X050702Y004681D03*
X048702Y004681D03*
X046702Y004681D03*
X044702Y004681D03*
X042702Y004681D03*
X040702Y004681D03*
X038702Y004681D03*
X036702Y004681D03*
X034702Y004681D03*
X032702Y004681D03*
X030702Y004681D03*
X028702Y004681D03*
X026702Y004681D03*
X024702Y004681D03*
X022702Y004681D03*
X020702Y004681D03*
X018702Y004681D03*
X016702Y004681D03*
X014702Y004681D03*
X012702Y004681D03*
X010702Y004681D03*
X008702Y004681D03*
M02*
