G75*
G70*
%OFA0B0*%
%FSLAX24Y24*%
%IPPOS*%
%LPD*%
%AMOC8*
5,1,8,0,0,1.08239X$1,22.5*
%
%ADD10C,0.0080*%
%ADD11C,0.0083*%
%ADD12C,0.0081*%
%ADD13R,0.0820X0.0820*%
%ADD14OC8,0.0820*%
%ADD15C,0.0336*%
D10*
X003332Y001796D02*
X003572Y001796D01*
X003572Y000926D01*
X003332Y000926D01*
X003332Y001796D01*
X003332Y001005D02*
X003572Y001005D01*
X003572Y001084D02*
X003332Y001084D01*
X003332Y001163D02*
X003572Y001163D01*
X003572Y001242D02*
X003332Y001242D01*
X003332Y001321D02*
X003572Y001321D01*
X003572Y001400D02*
X003332Y001400D01*
X003332Y001479D02*
X003572Y001479D01*
X003572Y001558D02*
X003332Y001558D01*
X003332Y001637D02*
X003572Y001637D01*
X003572Y001716D02*
X003332Y001716D01*
X003332Y001795D02*
X003572Y001795D01*
X003832Y001796D02*
X004072Y001796D01*
X004072Y000926D01*
X003832Y000926D01*
X003832Y001796D01*
X003832Y001005D02*
X004072Y001005D01*
X004072Y001084D02*
X003832Y001084D01*
X003832Y001163D02*
X004072Y001163D01*
X004072Y001242D02*
X003832Y001242D01*
X003832Y001321D02*
X004072Y001321D01*
X004072Y001400D02*
X003832Y001400D01*
X003832Y001479D02*
X004072Y001479D01*
X004072Y001558D02*
X003832Y001558D01*
X003832Y001637D02*
X004072Y001637D01*
X004072Y001716D02*
X003832Y001716D01*
X003832Y001795D02*
X004072Y001795D01*
X004332Y001796D02*
X004572Y001796D01*
X004572Y000926D01*
X004332Y000926D01*
X004332Y001796D01*
X004332Y001005D02*
X004572Y001005D01*
X004572Y001084D02*
X004332Y001084D01*
X004332Y001163D02*
X004572Y001163D01*
X004572Y001242D02*
X004332Y001242D01*
X004332Y001321D02*
X004572Y001321D01*
X004572Y001400D02*
X004332Y001400D01*
X004332Y001479D02*
X004572Y001479D01*
X004572Y001558D02*
X004332Y001558D01*
X004332Y001637D02*
X004572Y001637D01*
X004572Y001716D02*
X004332Y001716D01*
X004332Y001795D02*
X004572Y001795D01*
X004832Y001796D02*
X005072Y001796D01*
X005072Y000926D01*
X004832Y000926D01*
X004832Y001796D01*
X004832Y001005D02*
X005072Y001005D01*
X005072Y001084D02*
X004832Y001084D01*
X004832Y001163D02*
X005072Y001163D01*
X005072Y001242D02*
X004832Y001242D01*
X004832Y001321D02*
X005072Y001321D01*
X005072Y001400D02*
X004832Y001400D01*
X004832Y001479D02*
X005072Y001479D01*
X005072Y001558D02*
X004832Y001558D01*
X004832Y001637D02*
X005072Y001637D01*
X005072Y001716D02*
X004832Y001716D01*
X004832Y001795D02*
X005072Y001795D01*
X005072Y004446D02*
X004832Y004446D01*
X005072Y004446D02*
X005072Y003576D01*
X004832Y003576D01*
X004832Y004446D01*
X004832Y003655D02*
X005072Y003655D01*
X005072Y003734D02*
X004832Y003734D01*
X004832Y003813D02*
X005072Y003813D01*
X005072Y003892D02*
X004832Y003892D01*
X004832Y003971D02*
X005072Y003971D01*
X005072Y004050D02*
X004832Y004050D01*
X004832Y004129D02*
X005072Y004129D01*
X005072Y004208D02*
X004832Y004208D01*
X004832Y004287D02*
X005072Y004287D01*
X005072Y004366D02*
X004832Y004366D01*
X004832Y004445D02*
X005072Y004445D01*
X004572Y004446D02*
X004332Y004446D01*
X004572Y004446D02*
X004572Y003576D01*
X004332Y003576D01*
X004332Y004446D01*
X004332Y003655D02*
X004572Y003655D01*
X004572Y003734D02*
X004332Y003734D01*
X004332Y003813D02*
X004572Y003813D01*
X004572Y003892D02*
X004332Y003892D01*
X004332Y003971D02*
X004572Y003971D01*
X004572Y004050D02*
X004332Y004050D01*
X004332Y004129D02*
X004572Y004129D01*
X004572Y004208D02*
X004332Y004208D01*
X004332Y004287D02*
X004572Y004287D01*
X004572Y004366D02*
X004332Y004366D01*
X004332Y004445D02*
X004572Y004445D01*
X004072Y004446D02*
X003832Y004446D01*
X004072Y004446D02*
X004072Y003576D01*
X003832Y003576D01*
X003832Y004446D01*
X003832Y003655D02*
X004072Y003655D01*
X004072Y003734D02*
X003832Y003734D01*
X003832Y003813D02*
X004072Y003813D01*
X004072Y003892D02*
X003832Y003892D01*
X003832Y003971D02*
X004072Y003971D01*
X004072Y004050D02*
X003832Y004050D01*
X003832Y004129D02*
X004072Y004129D01*
X004072Y004208D02*
X003832Y004208D01*
X003832Y004287D02*
X004072Y004287D01*
X004072Y004366D02*
X003832Y004366D01*
X003832Y004445D02*
X004072Y004445D01*
X003572Y004446D02*
X003332Y004446D01*
X003572Y004446D02*
X003572Y003576D01*
X003332Y003576D01*
X003332Y004446D01*
X003332Y003655D02*
X003572Y003655D01*
X003572Y003734D02*
X003332Y003734D01*
X003332Y003813D02*
X003572Y003813D01*
X003572Y003892D02*
X003332Y003892D01*
X003332Y003971D02*
X003572Y003971D01*
X003572Y004050D02*
X003332Y004050D01*
X003332Y004129D02*
X003572Y004129D01*
X003572Y004208D02*
X003332Y004208D01*
X003332Y004287D02*
X003572Y004287D01*
X003572Y004366D02*
X003332Y004366D01*
X003332Y004445D02*
X003572Y004445D01*
D11*
X005423Y004367D02*
X005933Y004367D01*
X005423Y004367D02*
X005423Y004995D01*
X005933Y004995D01*
X005933Y004367D01*
X005933Y004449D02*
X005423Y004449D01*
X005423Y004531D02*
X005933Y004531D01*
X005933Y004613D02*
X005423Y004613D01*
X005423Y004695D02*
X005933Y004695D01*
X005933Y004777D02*
X005423Y004777D01*
X005423Y004859D02*
X005933Y004859D01*
X005933Y004941D02*
X005423Y004941D01*
X006171Y004367D02*
X006681Y004367D01*
X006171Y004367D02*
X006171Y004995D01*
X006681Y004995D01*
X006681Y004367D01*
X006681Y004449D02*
X006171Y004449D01*
X006171Y004531D02*
X006681Y004531D01*
X006681Y004613D02*
X006171Y004613D01*
X006171Y004695D02*
X006681Y004695D01*
X006681Y004777D02*
X006171Y004777D01*
X006171Y004859D02*
X006681Y004859D01*
X006681Y004941D02*
X006171Y004941D01*
X006171Y003567D02*
X006681Y003567D01*
X006171Y003567D02*
X006171Y004195D01*
X006681Y004195D01*
X006681Y003567D01*
X006681Y003649D02*
X006171Y003649D01*
X006171Y003731D02*
X006681Y003731D01*
X006681Y003813D02*
X006171Y003813D01*
X006171Y003895D02*
X006681Y003895D01*
X006681Y003977D02*
X006171Y003977D01*
X006171Y004059D02*
X006681Y004059D01*
X006681Y004141D02*
X006171Y004141D01*
X005933Y003567D02*
X005423Y003567D01*
X005423Y004195D01*
X005933Y004195D01*
X005933Y003567D01*
X005933Y003649D02*
X005423Y003649D01*
X005423Y003731D02*
X005933Y003731D01*
X005933Y003813D02*
X005423Y003813D01*
X005423Y003895D02*
X005933Y003895D01*
X005933Y003977D02*
X005423Y003977D01*
X005423Y004059D02*
X005933Y004059D01*
X005933Y004141D02*
X005423Y004141D01*
X005758Y003310D02*
X005758Y002800D01*
X005758Y003310D02*
X006346Y003310D01*
X006346Y002800D01*
X005758Y002800D01*
X005758Y002882D02*
X006346Y002882D01*
X006346Y002964D02*
X005758Y002964D01*
X005758Y003046D02*
X006346Y003046D01*
X006346Y003128D02*
X005758Y003128D01*
X005758Y003210D02*
X006346Y003210D01*
X006346Y003292D02*
X005758Y003292D01*
X005758Y002562D02*
X005758Y002052D01*
X005758Y002562D02*
X006346Y002562D01*
X006346Y002052D01*
X005758Y002052D01*
X005758Y002134D02*
X006346Y002134D01*
X006346Y002216D02*
X005758Y002216D01*
X005758Y002298D02*
X006346Y002298D01*
X006346Y002380D02*
X005758Y002380D01*
X005758Y002462D02*
X006346Y002462D01*
X006346Y002544D02*
X005758Y002544D01*
X005758Y001710D02*
X005758Y001200D01*
X005758Y001710D02*
X006346Y001710D01*
X006346Y001200D01*
X005758Y001200D01*
X005758Y001282D02*
X006346Y001282D01*
X006346Y001364D02*
X005758Y001364D01*
X005758Y001446D02*
X006346Y001446D01*
X006346Y001528D02*
X005758Y001528D01*
X005758Y001610D02*
X006346Y001610D01*
X006346Y001692D02*
X005758Y001692D01*
X005758Y000962D02*
X005758Y000452D01*
X005758Y000962D02*
X006346Y000962D01*
X006346Y000452D01*
X005758Y000452D01*
X005758Y000534D02*
X006346Y000534D01*
X006346Y000616D02*
X005758Y000616D01*
X005758Y000698D02*
X006346Y000698D01*
X006346Y000780D02*
X005758Y000780D01*
X005758Y000862D02*
X006346Y000862D01*
X006346Y000944D02*
X005758Y000944D01*
D12*
X003108Y004103D02*
X003108Y004241D01*
X003108Y004103D02*
X002896Y004103D01*
X002896Y004241D01*
X003108Y004241D01*
X003108Y004183D02*
X002896Y004183D01*
X003108Y004381D02*
X003108Y004519D01*
X003108Y004381D02*
X002896Y004381D01*
X002896Y004519D01*
X003108Y004519D01*
X003108Y004461D02*
X002896Y004461D01*
D13*
X002302Y001681D03*
D14*
X001302Y001681D03*
X001302Y002681D03*
X002302Y002681D03*
X002302Y003681D03*
X001302Y003681D03*
D15*
X007702Y000681D03*
X009702Y000681D03*
X011702Y000681D03*
X013702Y000681D03*
X015702Y000681D03*
X017702Y000681D03*
X019702Y000681D03*
X021702Y000681D03*
X023702Y000681D03*
X025702Y000681D03*
X027702Y000681D03*
X029702Y000681D03*
X031702Y000681D03*
X033702Y000681D03*
X035702Y000681D03*
X037702Y000681D03*
X039702Y000681D03*
X041702Y000681D03*
X043702Y000681D03*
X045702Y000681D03*
X047702Y000681D03*
X049702Y000681D03*
X051702Y000681D03*
X053702Y000681D03*
X054702Y001681D03*
X056702Y001681D03*
X058702Y001681D03*
X060702Y001681D03*
X062702Y001681D03*
X064702Y001681D03*
X052702Y001681D03*
X050702Y001681D03*
X048702Y001681D03*
X046702Y001681D03*
X044702Y001681D03*
X042702Y001681D03*
X040702Y001681D03*
X038702Y001681D03*
X036702Y001681D03*
X034702Y001681D03*
X032702Y001681D03*
X030702Y001681D03*
X028702Y001681D03*
X026702Y001681D03*
X024702Y001681D03*
X022702Y001681D03*
X020702Y001681D03*
X018702Y001681D03*
X016702Y001681D03*
X014702Y001681D03*
X012702Y001681D03*
X010702Y001681D03*
X008702Y001681D03*
X004952Y001931D03*
X003952Y001931D03*
X005202Y003181D03*
X007702Y003681D03*
X009702Y003681D03*
X011702Y003681D03*
X013702Y003681D03*
X015702Y003681D03*
X017702Y003681D03*
X019702Y003681D03*
X021702Y003681D03*
X023702Y003681D03*
X025702Y003681D03*
X027702Y003681D03*
X029702Y003681D03*
X031702Y003681D03*
X033702Y003681D03*
X035702Y003681D03*
X037702Y003681D03*
X039702Y003681D03*
X041702Y003681D03*
X043702Y003681D03*
X045702Y003681D03*
X047702Y003681D03*
X049702Y003681D03*
X051702Y003681D03*
X053702Y003681D03*
X055702Y003681D03*
X057702Y003681D03*
X059702Y003681D03*
X061702Y003681D03*
X063702Y003681D03*
X064702Y003681D03*
X054702Y004681D03*
X052702Y004681D03*
X050702Y004681D03*
X048702Y004681D03*
X046702Y004681D03*
X044702Y004681D03*
X042702Y004681D03*
X040702Y004681D03*
X038702Y004681D03*
X036702Y004681D03*
X034702Y004681D03*
X032702Y004681D03*
X030702Y004681D03*
X028702Y004681D03*
X026702Y004681D03*
X024702Y004681D03*
X022702Y004681D03*
X020702Y004681D03*
X018702Y004681D03*
X016702Y004681D03*
X014702Y004681D03*
X012702Y004681D03*
X010702Y004681D03*
X008702Y004681D03*
M02*
