G75*
G70*
%OFA0B0*%
%FSLAX24Y24*%
%IPPOS*%
%LPD*%
%AMOC8*
5,1,8,0,0,1.08239X$1,22.5*
%
%ADD10C,0.0000*%
%ADD11C,0.0070*%
%ADD12C,0.0040*%
%ADD13C,0.0030*%
%ADD14C,0.0080*%
%ADD15C,0.0060*%
%ADD16C,0.0050*%
D10*
X000502Y000181D02*
X050702Y000181D01*
X064202Y001181D01*
X064278Y001183D01*
X064354Y001189D01*
X064429Y001198D01*
X064504Y001212D01*
X064578Y001229D01*
X064651Y001250D01*
X064723Y001274D01*
X064794Y001303D01*
X064863Y001334D01*
X064930Y001369D01*
X064995Y001408D01*
X065059Y001450D01*
X065120Y001495D01*
X065179Y001543D01*
X065235Y001594D01*
X065289Y001648D01*
X065340Y001704D01*
X065388Y001763D01*
X065433Y001824D01*
X065475Y001888D01*
X065514Y001953D01*
X065549Y002020D01*
X065580Y002089D01*
X065609Y002160D01*
X065633Y002232D01*
X065654Y002305D01*
X065671Y002379D01*
X065685Y002454D01*
X065694Y002529D01*
X065700Y002605D01*
X065702Y002681D01*
X065700Y002757D01*
X065694Y002833D01*
X065685Y002908D01*
X065671Y002983D01*
X065654Y003057D01*
X065633Y003130D01*
X065609Y003202D01*
X065580Y003273D01*
X065549Y003342D01*
X065514Y003409D01*
X065475Y003474D01*
X065433Y003538D01*
X065388Y003599D01*
X065340Y003658D01*
X065289Y003714D01*
X065235Y003768D01*
X065179Y003819D01*
X065120Y003867D01*
X065059Y003912D01*
X064995Y003954D01*
X064930Y003993D01*
X064863Y004028D01*
X064794Y004059D01*
X064723Y004088D01*
X064651Y004112D01*
X064578Y004133D01*
X064504Y004150D01*
X064429Y004164D01*
X064354Y004173D01*
X064278Y004179D01*
X064202Y004181D01*
X050702Y005181D01*
X000452Y005181D01*
X000422Y005179D01*
X000392Y005174D01*
X000363Y005165D01*
X000336Y005152D01*
X000310Y005137D01*
X000286Y005118D01*
X000265Y005097D01*
X000246Y005073D01*
X000231Y005047D01*
X000218Y005020D01*
X000209Y004991D01*
X000204Y004961D01*
X000202Y004931D01*
X000202Y000431D01*
X000207Y000400D01*
X000215Y000370D01*
X000226Y000342D01*
X000240Y000314D01*
X000258Y000289D01*
X000278Y000265D01*
X000300Y000244D01*
X000325Y000226D01*
X000352Y000210D01*
X000380Y000198D01*
X000410Y000188D01*
X000440Y000182D01*
X000471Y000180D01*
X000502Y000181D01*
X006052Y000813D02*
X006052Y001350D01*
X006320Y001081D02*
X005783Y001081D01*
X004202Y002281D02*
X004202Y003081D01*
X006052Y002950D02*
X006052Y002413D01*
X005783Y002681D02*
X006320Y002681D01*
X004602Y002681D02*
X003802Y002681D01*
X002202Y002681D02*
X001402Y002681D01*
X001802Y002281D02*
X001802Y003081D01*
X006052Y003613D02*
X006052Y004150D01*
X006320Y003881D02*
X005783Y003881D01*
X003002Y004140D02*
X003002Y004423D01*
X002860Y004281D02*
X003143Y004281D01*
X006052Y004413D02*
X006052Y004950D01*
X006320Y004681D02*
X005783Y004681D01*
D11*
X009803Y003004D02*
X009803Y002927D01*
X010454Y002927D02*
X010454Y003004D01*
X010129Y002850D02*
X010129Y002543D01*
X010205Y002466D01*
X010377Y002466D02*
X010531Y002466D01*
X010454Y002466D02*
X010454Y002773D01*
X010377Y002773D01*
X010205Y002773D02*
X010052Y002773D01*
X009803Y002773D02*
X009803Y002466D01*
X009727Y002466D02*
X009880Y002466D01*
X009545Y002466D02*
X009315Y002466D01*
X009239Y002543D01*
X009239Y002697D01*
X009315Y002773D01*
X009545Y002773D01*
X009727Y002773D02*
X009803Y002773D01*
X009057Y002697D02*
X009057Y002466D01*
X008827Y002466D01*
X008751Y002543D01*
X008827Y002620D01*
X009057Y002620D01*
X008569Y002697D02*
X008569Y002543D01*
X008493Y002466D01*
X008263Y002466D01*
X008081Y002466D02*
X007851Y002466D01*
X007775Y002543D01*
X007851Y002620D01*
X008081Y002620D01*
X007593Y002543D02*
X007517Y002466D01*
X007363Y002466D01*
X007287Y002543D01*
X007287Y002850D01*
X007363Y002927D01*
X007517Y002927D01*
X007593Y002850D01*
X007851Y002773D02*
X008005Y002773D01*
X008081Y002697D01*
X008081Y002466D01*
X008263Y002313D02*
X008263Y002773D01*
X008493Y002773D01*
X008569Y002697D01*
X008827Y002773D02*
X008981Y002773D01*
X009057Y002697D01*
X010702Y002773D02*
X010856Y002466D01*
X011009Y002773D01*
X011190Y002697D02*
X011267Y002773D01*
X011421Y002773D01*
X011497Y002697D01*
X011497Y002620D01*
X011190Y002620D01*
X011190Y002543D02*
X011190Y002697D01*
X012166Y002927D02*
X012320Y002773D01*
X012473Y002927D01*
X012473Y002466D01*
X012654Y002543D02*
X012731Y002466D01*
X012885Y002466D01*
X012961Y002543D01*
X012961Y002697D01*
X012885Y002773D01*
X012731Y002773D01*
X012654Y002697D01*
X012654Y002543D01*
X013468Y002697D02*
X013544Y002620D01*
X013698Y002620D01*
X013775Y002543D01*
X013698Y002466D01*
X013468Y002466D01*
X013296Y002466D02*
X013142Y002466D01*
X013219Y002466D02*
X013219Y002773D01*
X013142Y002773D01*
X013468Y002697D02*
X013544Y002773D01*
X013775Y002773D01*
X013956Y002773D02*
X014109Y002773D01*
X014032Y002850D02*
X014032Y002543D01*
X014109Y002466D01*
X014281Y002543D02*
X014358Y002466D01*
X014588Y002466D01*
X014588Y002773D01*
X014769Y002773D02*
X014769Y002466D01*
X015176Y002543D02*
X015252Y002466D01*
X015406Y002466D01*
X016152Y002543D02*
X016228Y002466D01*
X016382Y002466D01*
X016459Y002543D01*
X016459Y002620D01*
X016382Y002697D01*
X016228Y002697D01*
X016152Y002773D01*
X016152Y002850D01*
X016228Y002927D01*
X016382Y002927D01*
X016459Y002850D01*
X016640Y002697D02*
X016716Y002773D01*
X016870Y002773D01*
X016947Y002697D01*
X016947Y002620D01*
X016640Y002620D01*
X016640Y002543D02*
X016640Y002697D01*
X017128Y002773D02*
X017358Y002773D01*
X017435Y002697D01*
X017435Y002466D01*
X017616Y002466D02*
X017846Y002466D01*
X017923Y002543D01*
X017846Y002620D01*
X017692Y002620D01*
X017616Y002697D01*
X017692Y002773D01*
X017923Y002773D01*
X018104Y002697D02*
X018180Y002773D01*
X018334Y002773D01*
X018411Y002697D01*
X018411Y002543D01*
X018334Y002466D01*
X018180Y002466D01*
X018104Y002543D01*
X018104Y002697D01*
X018592Y002773D02*
X018592Y002466D01*
X018592Y002620D02*
X018745Y002773D01*
X018822Y002773D01*
X017128Y002773D02*
X017128Y002466D01*
X016870Y002466D02*
X016716Y002466D01*
X016640Y002543D01*
X015483Y002620D02*
X015176Y002620D01*
X015176Y002543D02*
X015176Y002697D01*
X015252Y002773D01*
X015406Y002773D01*
X015483Y002697D01*
X015483Y002620D01*
X014922Y002773D02*
X014769Y002620D01*
X014281Y002543D02*
X014281Y002773D01*
X014922Y002773D02*
X014999Y002773D01*
X013219Y002927D02*
X013219Y003004D01*
X012166Y002927D02*
X012166Y002466D01*
X011421Y002466D02*
X011267Y002466D01*
X011190Y002543D01*
D12*
X006952Y002762D02*
X006952Y002949D01*
X006952Y002855D02*
X006671Y002855D01*
X006765Y002762D01*
X006811Y002654D02*
X006811Y002467D01*
X006718Y002360D02*
X006905Y002173D01*
X006952Y002173D01*
X006671Y002173D02*
X006671Y002360D01*
X006718Y002360D01*
X006718Y002065D02*
X006905Y001878D01*
X006952Y001925D01*
X006952Y002018D01*
X006905Y002065D01*
X006718Y002065D01*
X006671Y002018D01*
X006671Y001925D01*
X006718Y001878D01*
X006905Y001878D01*
X006811Y001770D02*
X006811Y001584D01*
X006952Y001476D02*
X006952Y001289D01*
X006765Y001289D02*
X006671Y001382D01*
X006952Y001382D01*
X006952Y001181D02*
X006952Y000994D01*
X006765Y000994D02*
X006671Y001088D01*
X006952Y001088D01*
X006905Y000886D02*
X006952Y000840D01*
X006952Y000746D01*
X006905Y000700D01*
X006718Y000886D01*
X006905Y000886D01*
X006718Y000886D02*
X006671Y000840D01*
X006671Y000746D01*
X006718Y000700D01*
X006905Y000700D01*
X006952Y000592D02*
X006952Y000405D01*
X006765Y000592D01*
X006718Y000592D01*
X006671Y000545D01*
X006671Y000452D01*
X006718Y000405D01*
X005414Y000431D02*
X005414Y000572D01*
X005367Y000618D01*
X005320Y000572D01*
X005320Y000431D01*
X005227Y000431D02*
X005227Y000618D01*
X005274Y000618D01*
X005320Y000572D01*
X005119Y000572D02*
X005072Y000618D01*
X004979Y000618D01*
X004932Y000572D01*
X004932Y000478D01*
X004979Y000431D01*
X005072Y000431D01*
X005119Y000478D01*
X005119Y000572D01*
X004824Y000618D02*
X004684Y000618D01*
X004638Y000572D01*
X004638Y000478D01*
X004684Y000431D01*
X004824Y000431D01*
X004537Y000431D02*
X004490Y000431D01*
X004490Y000478D01*
X004537Y000478D01*
X004537Y000431D01*
X004382Y000431D02*
X004242Y000431D01*
X004196Y000478D01*
X004196Y000572D01*
X004242Y000618D01*
X004382Y000618D01*
X004090Y000618D02*
X004043Y000618D01*
X003950Y000525D01*
X003950Y000618D02*
X003950Y000431D01*
X003842Y000431D02*
X003702Y000431D01*
X003655Y000478D01*
X003702Y000525D01*
X003842Y000525D01*
X003842Y000572D02*
X003842Y000431D01*
X003548Y000431D02*
X003407Y000431D01*
X003361Y000478D01*
X003361Y000572D01*
X003407Y000618D01*
X003548Y000618D01*
X003702Y000618D02*
X003796Y000618D01*
X003842Y000572D01*
X003253Y000572D02*
X003206Y000618D01*
X003066Y000618D01*
X003066Y000338D01*
X003066Y000431D02*
X003206Y000431D01*
X003253Y000478D01*
X003253Y000572D01*
X002958Y000572D02*
X002958Y000525D01*
X002771Y000525D01*
X002771Y000478D02*
X002771Y000572D01*
X002818Y000618D01*
X002912Y000618D01*
X002958Y000572D01*
X002664Y000572D02*
X002664Y000525D01*
X002477Y000525D01*
X002477Y000478D02*
X002477Y000572D01*
X002524Y000618D01*
X002617Y000618D01*
X002664Y000572D01*
X002369Y000618D02*
X002229Y000618D01*
X002182Y000572D01*
X002182Y000478D01*
X002229Y000431D01*
X002369Y000431D01*
X002369Y000712D01*
X001927Y000618D02*
X001927Y000478D01*
X001880Y000431D01*
X001834Y000478D01*
X001787Y000431D01*
X001740Y000478D01*
X001740Y000618D01*
X001632Y000618D02*
X001632Y000478D01*
X001586Y000431D01*
X001539Y000478D01*
X001492Y000431D01*
X001446Y000478D01*
X001446Y000618D01*
X001338Y000618D02*
X001338Y000478D01*
X001291Y000431D01*
X001244Y000478D01*
X001198Y000431D01*
X001151Y000478D01*
X001151Y000618D01*
X002035Y000478D02*
X002082Y000478D01*
X002082Y000431D01*
X002035Y000431D01*
X002035Y000478D01*
X002477Y000478D02*
X002524Y000431D01*
X002617Y000431D01*
X002771Y000478D02*
X002818Y000431D01*
X002912Y000431D01*
X003548Y000431D02*
X003548Y000712D01*
X006671Y003150D02*
X006765Y003057D01*
X006952Y003057D02*
X006952Y003244D01*
X006952Y003150D02*
X006671Y003150D01*
X005014Y004828D02*
X004967Y004781D01*
X004874Y004781D01*
X004827Y004828D01*
X005014Y005015D01*
X005014Y004828D01*
X004827Y004828D02*
X004827Y005015D01*
X004874Y005062D01*
X004967Y005062D01*
X005014Y005015D01*
X004572Y005015D02*
X004572Y004968D01*
X004525Y004922D01*
X004572Y004875D01*
X004572Y004828D01*
X004525Y004781D01*
X004432Y004781D01*
X004385Y004828D01*
X004680Y004828D02*
X004680Y004781D01*
X004726Y004781D01*
X004726Y004828D01*
X004680Y004828D01*
X003982Y004781D02*
X003982Y004968D01*
X003889Y005062D01*
X003796Y004968D01*
X003796Y004781D01*
X003688Y004828D02*
X003641Y004781D01*
X003548Y004781D01*
X003501Y004828D01*
X003641Y004922D02*
X003688Y004875D01*
X003688Y004828D01*
X003005Y004781D02*
X003005Y004922D01*
X003099Y005015D01*
X003099Y005062D01*
X003005Y004922D02*
X002912Y005015D01*
X002912Y005062D01*
X002804Y005015D02*
X002804Y004968D01*
X002757Y004922D01*
X002617Y004922D01*
X002509Y004922D02*
X002322Y004922D01*
X002757Y004922D02*
X002804Y004875D01*
X002804Y004828D01*
X002757Y004781D01*
X002617Y004781D01*
X002617Y005062D01*
X002757Y005062D01*
X002804Y005015D01*
X002215Y005015D02*
X002168Y005062D01*
X002074Y005062D01*
X002028Y005015D01*
X002028Y004828D01*
X002074Y004781D01*
X002168Y004781D01*
X002215Y004828D01*
X001920Y004828D02*
X001873Y004781D01*
X001780Y004781D01*
X001733Y004828D01*
X001733Y005015D01*
X001780Y005062D01*
X001873Y005062D01*
X001920Y005015D01*
X003206Y004922D02*
X003393Y004922D01*
X003501Y004968D02*
X003548Y004922D01*
X003641Y004922D01*
X003501Y004968D02*
X003501Y005015D01*
X003548Y005062D01*
X003641Y005062D01*
X003688Y005015D01*
X004385Y005015D02*
X004432Y005062D01*
X004525Y005062D01*
X004572Y005015D01*
X004525Y004922D02*
X004478Y004922D01*
X004277Y004922D02*
X004090Y004922D01*
X003982Y004922D02*
X003796Y004922D01*
D13*
X000607Y004297D02*
X000558Y004345D01*
X000365Y004345D01*
X000316Y004297D01*
X000316Y004152D01*
X000607Y004152D01*
X000607Y004297D01*
X000607Y004051D02*
X000316Y004051D01*
X000316Y003857D02*
X000607Y004051D01*
X000607Y003857D02*
X000316Y003857D01*
X000365Y003756D02*
X000316Y003708D01*
X000316Y003611D01*
X000365Y003562D01*
X000558Y003562D01*
X000607Y003611D01*
X000607Y003708D01*
X000558Y003756D01*
X000461Y003756D01*
X000461Y003659D01*
X000316Y003095D02*
X000316Y002902D01*
X000316Y002999D02*
X000607Y002999D01*
X000607Y002801D02*
X000413Y002801D01*
X000316Y002704D01*
X000413Y002607D01*
X000607Y002607D01*
X000461Y002607D02*
X000461Y002801D01*
X000365Y002506D02*
X000316Y002458D01*
X000316Y002312D01*
X000607Y002312D01*
X000607Y002458D01*
X000558Y002506D01*
X000365Y002506D01*
X000365Y001745D02*
X000316Y001697D01*
X000316Y001600D01*
X000365Y001552D01*
X000558Y001552D01*
X000607Y001600D01*
X000607Y001697D01*
X000558Y001745D01*
X000558Y001451D02*
X000607Y001402D01*
X000607Y001305D01*
X000558Y001257D01*
X000365Y001257D01*
X000316Y001305D01*
X000316Y001402D01*
X000365Y001451D01*
X000316Y001156D02*
X000510Y001156D01*
X000607Y001059D01*
X000510Y000962D01*
X000316Y000962D01*
D14*
X004855Y003371D02*
X004857Y003386D01*
X004863Y003399D01*
X004872Y003411D01*
X004883Y003420D01*
X004897Y003426D01*
X004912Y003428D01*
X004927Y003426D01*
X004940Y003420D01*
X004952Y003411D01*
X004961Y003400D01*
X004967Y003386D01*
X004969Y003371D01*
X004967Y003356D01*
X004961Y003343D01*
X004952Y003331D01*
X004941Y003322D01*
X004927Y003316D01*
X004912Y003314D01*
X004897Y003316D01*
X004884Y003322D01*
X004872Y003331D01*
X004863Y003342D01*
X004857Y003356D01*
X004855Y003371D01*
D15*
X005131Y003691D02*
X005131Y001682D01*
X003272Y001682D02*
X003272Y003691D01*
D16*
X006926Y003606D02*
X006926Y003782D01*
X006985Y003840D01*
X007101Y003840D01*
X007160Y003782D01*
X007160Y003606D01*
X007277Y003606D02*
X006926Y003606D01*
X007160Y003723D02*
X007277Y003840D01*
X007277Y003975D02*
X007277Y004208D01*
X007277Y004091D02*
X006926Y004091D01*
X007043Y003975D01*
X003179Y004124D02*
X003179Y004587D01*
X002824Y004587D01*
X002824Y004124D01*
X002825Y004124D02*
X002827Y004099D01*
X002832Y004074D01*
X002841Y004050D01*
X002853Y004028D01*
X002868Y004008D01*
X002886Y003990D01*
X002906Y003975D01*
X002928Y003963D01*
X002952Y003954D01*
X002977Y003949D01*
X003002Y003947D01*
X003027Y003949D01*
X003052Y003954D01*
X003076Y003963D01*
X003098Y003975D01*
X003118Y003990D01*
X003136Y004008D01*
X003151Y004028D01*
X003163Y004050D01*
X003172Y004074D01*
X003177Y004099D01*
X003179Y004124D01*
X006916Y004366D02*
X006916Y004542D01*
X006975Y004600D01*
X007091Y004600D01*
X007150Y004542D01*
X007150Y004366D01*
X007267Y004366D02*
X006916Y004366D01*
X007150Y004483D02*
X007267Y004600D01*
X007267Y004735D02*
X007033Y004968D01*
X006975Y004968D01*
X006916Y004910D01*
X006916Y004793D01*
X006975Y004735D01*
X007267Y004735D02*
X007267Y004968D01*
X005627Y002922D02*
X005627Y002688D01*
X005393Y002922D01*
X005335Y002922D01*
X005276Y002863D01*
X005276Y002746D01*
X005335Y002688D01*
X005335Y002553D02*
X005276Y002495D01*
X005276Y002378D01*
X005335Y002320D01*
X005568Y002320D01*
X005627Y002378D01*
X005627Y002495D01*
X005568Y002553D01*
X004642Y002506D02*
X004408Y002506D01*
X004525Y002506D02*
X004525Y002857D01*
X004408Y002740D01*
X004273Y002798D02*
X004215Y002857D01*
X004098Y002857D01*
X004040Y002798D01*
X004040Y002565D01*
X004098Y002506D01*
X004215Y002506D01*
X004273Y002565D01*
X003911Y002506D02*
X003794Y002506D01*
X003853Y002506D02*
X003853Y002857D01*
X003911Y002857D02*
X003794Y002857D01*
X005577Y001622D02*
X005577Y001388D01*
X005343Y001388D02*
X005226Y001505D01*
X005577Y001505D01*
X005518Y001253D02*
X005577Y001195D01*
X005577Y001078D01*
X005518Y001020D01*
X005285Y001020D01*
X005226Y001078D01*
X005226Y001195D01*
X005285Y001253D01*
M02*
