G75*
G70*
%OFA0B0*%
%FSLAX24Y24*%
%IPPOS*%
%LPD*%
%AMOC8*
5,1,8,0,0,1.08239X$1,22.5*
%
%ADD10C,0.0000*%
%ADD11C,0.0070*%
%ADD12C,0.0040*%
%ADD13C,0.0030*%
%ADD14C,0.0080*%
%ADD15C,0.0060*%
%ADD16C,0.0050*%
D10*
X000411Y000181D02*
X075111Y000181D01*
X088611Y001181D01*
X088687Y001183D01*
X088763Y001189D01*
X088838Y001198D01*
X088913Y001212D01*
X088987Y001229D01*
X089060Y001250D01*
X089132Y001274D01*
X089203Y001303D01*
X089272Y001334D01*
X089339Y001369D01*
X089404Y001408D01*
X089468Y001450D01*
X089529Y001495D01*
X089588Y001543D01*
X089644Y001594D01*
X089698Y001648D01*
X089749Y001704D01*
X089797Y001763D01*
X089842Y001824D01*
X089884Y001888D01*
X089923Y001953D01*
X089958Y002020D01*
X089989Y002089D01*
X090018Y002160D01*
X090042Y002232D01*
X090063Y002305D01*
X090080Y002379D01*
X090094Y002454D01*
X090103Y002529D01*
X090109Y002605D01*
X090111Y002681D01*
X090109Y002757D01*
X090103Y002833D01*
X090094Y002908D01*
X090080Y002983D01*
X090063Y003057D01*
X090042Y003130D01*
X090018Y003202D01*
X089989Y003273D01*
X089958Y003342D01*
X089923Y003409D01*
X089884Y003474D01*
X089842Y003538D01*
X089797Y003599D01*
X089749Y003658D01*
X089698Y003714D01*
X089644Y003768D01*
X089588Y003819D01*
X089529Y003867D01*
X089468Y003912D01*
X089404Y003954D01*
X089339Y003993D01*
X089272Y004028D01*
X089203Y004059D01*
X089132Y004088D01*
X089060Y004112D01*
X088987Y004133D01*
X088913Y004150D01*
X088838Y004164D01*
X088763Y004173D01*
X088687Y004179D01*
X088611Y004181D01*
X075111Y005181D01*
X000361Y005181D01*
X000331Y005179D01*
X000301Y005174D01*
X000272Y005165D01*
X000245Y005152D01*
X000219Y005137D01*
X000195Y005118D01*
X000174Y005097D01*
X000155Y005073D01*
X000140Y005047D01*
X000127Y005020D01*
X000118Y004991D01*
X000113Y004961D01*
X000111Y004931D01*
X000111Y000431D01*
X000116Y000400D01*
X000124Y000370D01*
X000135Y000342D01*
X000149Y000314D01*
X000167Y000289D01*
X000187Y000265D01*
X000209Y000244D01*
X000234Y000226D01*
X000261Y000210D01*
X000289Y000198D01*
X000319Y000188D01*
X000349Y000182D01*
X000380Y000180D01*
X000411Y000181D01*
X003261Y000913D02*
X003261Y001450D01*
X002992Y001181D02*
X003530Y001181D01*
X003611Y002281D02*
X003611Y003081D01*
X006211Y003113D02*
X006211Y003650D01*
X006211Y003913D02*
X006211Y004450D01*
X004611Y004450D02*
X004611Y003913D01*
X004342Y004181D02*
X004880Y004181D01*
X005942Y004181D02*
X006480Y004181D01*
X006480Y003381D02*
X005942Y003381D01*
X006211Y002850D02*
X006211Y002313D01*
X005942Y002581D02*
X006480Y002581D01*
X004011Y002681D02*
X003211Y002681D01*
D11*
X007696Y002773D02*
X007773Y002697D01*
X007926Y002697D01*
X008003Y002620D01*
X008003Y002543D01*
X007926Y002466D01*
X007773Y002466D01*
X007696Y002543D01*
X008997Y002543D02*
X009074Y002466D01*
X009304Y002466D01*
X009304Y002390D02*
X009304Y002773D01*
X009074Y002773D01*
X008997Y002697D01*
X008997Y002543D01*
X009810Y002543D02*
X009810Y002697D01*
X009887Y002773D01*
X010041Y002773D01*
X010117Y002697D01*
X010117Y002620D01*
X009810Y002620D01*
X009810Y002543D02*
X009887Y002466D01*
X010041Y002466D01*
X009639Y002466D02*
X009485Y002466D01*
X009562Y002466D02*
X009562Y002927D01*
X009485Y002927D01*
X008261Y002927D02*
X008261Y003004D01*
X008003Y002850D02*
X007926Y002927D01*
X007773Y002927D01*
X007696Y002850D01*
X007696Y002773D01*
X008184Y002773D02*
X008261Y002773D01*
X008261Y002466D01*
X008337Y002466D02*
X008184Y002466D01*
X008509Y002466D02*
X008509Y002773D01*
X008739Y002773D01*
X008816Y002697D01*
X008816Y002466D01*
X009227Y002313D02*
X009304Y002390D01*
X009227Y002313D02*
X009151Y002313D01*
X010786Y002466D02*
X011093Y002466D01*
X011274Y002543D02*
X011351Y002466D01*
X011505Y002466D01*
X011581Y002543D01*
X011581Y002697D01*
X011505Y002773D01*
X011351Y002773D01*
X011274Y002697D01*
X011274Y002543D01*
X011093Y002850D02*
X010786Y002543D01*
X010786Y002466D01*
X011762Y002466D02*
X011762Y002773D01*
X011993Y002773D01*
X012069Y002697D01*
X012069Y002466D01*
X012250Y002543D02*
X012327Y002466D01*
X012481Y002466D01*
X013226Y002543D02*
X013303Y002466D01*
X013457Y002466D01*
X013533Y002543D01*
X013714Y002543D02*
X013791Y002620D01*
X014021Y002620D01*
X013791Y002466D02*
X013714Y002543D01*
X013226Y002543D02*
X013226Y002850D01*
X013303Y002927D01*
X013457Y002927D01*
X013533Y002850D01*
X013791Y002773D02*
X013945Y002773D01*
X014021Y002697D01*
X014021Y002466D01*
X013791Y002466D01*
X014202Y002466D02*
X014433Y002466D01*
X014509Y002543D01*
X014509Y002697D01*
X014433Y002773D01*
X014202Y002773D01*
X014202Y002313D01*
X014690Y002543D02*
X014767Y002466D01*
X014997Y002466D01*
X014997Y002697D01*
X014921Y002773D01*
X014767Y002773D01*
X015178Y002697D02*
X015255Y002773D01*
X015485Y002773D01*
X015666Y002773D02*
X015743Y002773D01*
X015743Y002466D01*
X015666Y002466D02*
X015820Y002466D01*
X016068Y002543D02*
X016145Y002466D01*
X016317Y002466D02*
X016470Y002466D01*
X016394Y002466D02*
X016394Y002773D01*
X016317Y002773D01*
X016145Y002773D02*
X015992Y002773D01*
X016642Y002773D02*
X016796Y002466D01*
X016949Y002773D01*
X017130Y002697D02*
X017207Y002773D01*
X017360Y002773D01*
X017437Y002697D01*
X017437Y002620D01*
X017130Y002620D01*
X017130Y002543D02*
X017130Y002697D01*
X018106Y002927D02*
X018260Y002773D01*
X018413Y002927D01*
X018413Y002466D01*
X018594Y002543D02*
X018671Y002466D01*
X018824Y002466D01*
X018901Y002543D01*
X018901Y002697D01*
X018824Y002773D01*
X018671Y002773D01*
X018594Y002697D01*
X018594Y002543D01*
X019408Y002697D02*
X019484Y002620D01*
X019638Y002620D01*
X019714Y002543D01*
X019638Y002466D01*
X019408Y002466D01*
X019236Y002466D02*
X019082Y002466D01*
X019159Y002466D02*
X019159Y002773D01*
X019082Y002773D01*
X019408Y002697D02*
X019484Y002773D01*
X019714Y002773D01*
X019896Y002773D02*
X020049Y002773D01*
X020221Y002773D02*
X020221Y002543D01*
X020298Y002466D01*
X020528Y002466D01*
X020528Y002773D01*
X020709Y002773D02*
X020709Y002466D01*
X021116Y002543D02*
X021192Y002466D01*
X021346Y002466D01*
X022092Y002543D02*
X022168Y002466D01*
X022322Y002466D01*
X022398Y002543D01*
X022398Y002620D01*
X022322Y002697D01*
X022168Y002697D01*
X022092Y002773D01*
X022092Y002850D01*
X022168Y002927D01*
X022322Y002927D01*
X022398Y002850D01*
X022580Y002697D02*
X022656Y002773D01*
X022810Y002773D01*
X022886Y002697D01*
X022886Y002620D01*
X022580Y002620D01*
X022580Y002543D02*
X022580Y002697D01*
X023068Y002773D02*
X023298Y002773D01*
X023374Y002697D01*
X023374Y002466D01*
X023556Y002466D02*
X023786Y002466D01*
X023862Y002543D01*
X023786Y002620D01*
X023632Y002620D01*
X023556Y002697D01*
X023632Y002773D01*
X023862Y002773D01*
X024044Y002697D02*
X024120Y002773D01*
X024274Y002773D01*
X024350Y002697D01*
X024350Y002543D01*
X024274Y002466D01*
X024120Y002466D01*
X024044Y002543D01*
X024044Y002697D01*
X024531Y002773D02*
X024531Y002466D01*
X023068Y002466D02*
X023068Y002773D01*
X024531Y002620D02*
X024685Y002773D01*
X024762Y002773D01*
X022656Y002466D02*
X022580Y002543D01*
X022656Y002466D02*
X022810Y002466D01*
X021116Y002543D02*
X021116Y002697D01*
X021192Y002773D01*
X021346Y002773D01*
X021422Y002697D01*
X021422Y002620D01*
X021116Y002620D01*
X020862Y002773D02*
X020709Y002620D01*
X020049Y002466D02*
X019972Y002543D01*
X019972Y002850D01*
X019159Y002927D02*
X019159Y003004D01*
X018106Y002927D02*
X018106Y002466D01*
X017360Y002466D02*
X017207Y002466D01*
X017130Y002543D01*
X016068Y002543D02*
X016068Y002850D01*
X015743Y002927D02*
X015743Y003004D01*
X016394Y003004D02*
X016394Y002927D01*
X015178Y002697D02*
X015178Y002543D01*
X015255Y002466D01*
X015485Y002466D01*
X014767Y002620D02*
X014690Y002543D01*
X014767Y002620D02*
X014997Y002620D01*
X012557Y002620D02*
X012250Y002620D01*
X012250Y002543D02*
X012250Y002697D01*
X012327Y002773D01*
X012481Y002773D01*
X012557Y002697D01*
X012557Y002620D01*
X011093Y002850D02*
X011093Y002927D01*
X010786Y002927D01*
X020862Y002773D02*
X020939Y002773D01*
D12*
X003033Y004251D02*
X003033Y004298D01*
X003219Y004485D01*
X003219Y004532D01*
X003033Y004532D01*
X002925Y004485D02*
X002878Y004532D01*
X002785Y004532D01*
X002738Y004485D01*
X002925Y004485D02*
X002925Y004438D01*
X002738Y004251D01*
X002925Y004251D01*
X002336Y004298D02*
X002336Y004345D01*
X002289Y004392D01*
X002149Y004392D01*
X002149Y004298D01*
X002195Y004251D01*
X002289Y004251D01*
X002336Y004298D01*
X002443Y004392D02*
X002630Y004392D01*
X002242Y004485D02*
X002149Y004392D01*
X002041Y004485D02*
X001854Y004298D01*
X001901Y004251D01*
X001994Y004251D01*
X002041Y004298D01*
X002041Y004485D01*
X001994Y004532D01*
X001901Y004532D01*
X001854Y004485D01*
X001854Y004298D01*
X001746Y004392D02*
X001559Y004392D01*
X001358Y004532D02*
X001265Y004438D01*
X001064Y004532D02*
X000970Y004438D01*
X000862Y004485D02*
X000676Y004298D01*
X000722Y004251D01*
X000816Y004251D01*
X000862Y004298D01*
X000862Y004485D01*
X000816Y004532D01*
X000722Y004532D01*
X000676Y004485D01*
X000676Y004298D01*
X000568Y004251D02*
X000381Y004251D01*
X000568Y004438D01*
X000568Y004485D01*
X000521Y004532D01*
X000428Y004532D01*
X000381Y004485D01*
X001064Y004532D02*
X001064Y004251D01*
X001157Y004251D02*
X000970Y004251D01*
X001265Y004251D02*
X001452Y004251D01*
X001358Y004251D02*
X001358Y004532D01*
X002242Y004485D02*
X002336Y004532D01*
X002289Y004701D02*
X002195Y004701D01*
X002149Y004748D01*
X002289Y004701D02*
X002336Y004748D01*
X002336Y004795D01*
X002289Y004842D01*
X002195Y004842D01*
X002149Y004888D01*
X002149Y004935D01*
X002195Y004982D01*
X002289Y004982D01*
X002336Y004935D01*
X002443Y004888D02*
X002537Y004982D01*
X002630Y004888D01*
X002630Y004701D01*
X002443Y004701D02*
X002443Y004888D01*
X002443Y004842D02*
X002630Y004842D01*
X002738Y004842D02*
X002925Y004842D01*
X003033Y004935D02*
X003079Y004982D01*
X003173Y004982D01*
X003219Y004935D01*
X003219Y004888D01*
X003173Y004842D01*
X003219Y004795D01*
X003219Y004748D01*
X003173Y004701D01*
X003079Y004701D01*
X003033Y004748D01*
X003327Y004748D02*
X003374Y004748D01*
X003374Y004701D01*
X003327Y004701D01*
X003327Y004748D01*
X003475Y004748D02*
X003661Y004935D01*
X003661Y004748D01*
X003615Y004701D01*
X003521Y004701D01*
X003475Y004748D01*
X003475Y004935D01*
X003521Y004982D01*
X003615Y004982D01*
X003661Y004935D01*
X003173Y004842D02*
X003126Y004842D01*
X002041Y004842D02*
X001854Y004842D01*
X001746Y004935D02*
X001746Y004982D01*
X001746Y004935D02*
X001653Y004842D01*
X001653Y004701D01*
X001452Y004748D02*
X001405Y004701D01*
X001265Y004701D01*
X001265Y004982D01*
X001405Y004982D01*
X001452Y004935D01*
X001452Y004888D01*
X001405Y004842D01*
X001265Y004842D01*
X001157Y004842D02*
X000970Y004842D01*
X000862Y004935D02*
X000816Y004982D01*
X000722Y004982D01*
X000676Y004935D01*
X000676Y004748D01*
X000722Y004701D01*
X000816Y004701D01*
X000862Y004748D01*
X000568Y004748D02*
X000521Y004701D01*
X000428Y004701D01*
X000381Y004748D01*
X000381Y004935D01*
X000428Y004982D01*
X000521Y004982D01*
X000568Y004935D01*
X001405Y004842D02*
X001452Y004795D01*
X001452Y004748D01*
X001559Y004935D02*
X001653Y004842D01*
X001559Y004935D02*
X001559Y004982D01*
X001747Y000682D02*
X001560Y000401D01*
X001460Y000401D02*
X001413Y000401D01*
X001413Y000448D01*
X001460Y000448D01*
X001460Y000401D01*
X001305Y000448D02*
X001258Y000401D01*
X001118Y000401D01*
X001015Y000401D02*
X000969Y000448D01*
X000969Y000635D01*
X001015Y000588D02*
X000922Y000588D01*
X000819Y000588D02*
X000726Y000588D01*
X000772Y000635D02*
X000772Y000448D01*
X000819Y000401D01*
X000618Y000401D02*
X000618Y000542D01*
X000571Y000588D01*
X000478Y000588D01*
X000431Y000542D01*
X001118Y000588D02*
X001258Y000588D01*
X001305Y000542D01*
X001305Y000448D01*
X001855Y000401D02*
X002042Y000682D01*
X003368Y000682D02*
X003368Y000401D01*
X003228Y000401D01*
X003181Y000448D01*
X003181Y000542D01*
X003228Y000588D01*
X003368Y000588D01*
X003476Y000542D02*
X003522Y000588D01*
X003616Y000588D01*
X003662Y000542D01*
X003662Y000495D01*
X003476Y000495D01*
X003476Y000448D02*
X003476Y000542D01*
X003770Y000542D02*
X003817Y000588D01*
X003910Y000588D01*
X003957Y000542D01*
X003957Y000495D01*
X003770Y000495D01*
X003770Y000448D02*
X003770Y000542D01*
X004065Y000588D02*
X004205Y000588D01*
X004252Y000542D01*
X004252Y000448D01*
X004205Y000401D01*
X004065Y000401D01*
X003910Y000401D02*
X003817Y000401D01*
X003770Y000448D01*
X003616Y000401D02*
X003522Y000401D01*
X003476Y000448D01*
X003080Y000448D02*
X003080Y000401D01*
X003034Y000401D01*
X003034Y000448D01*
X003080Y000448D01*
X002926Y000448D02*
X002926Y000588D01*
X002739Y000588D02*
X002739Y000448D01*
X002786Y000401D01*
X002832Y000448D01*
X002879Y000401D01*
X002926Y000448D01*
X002631Y000448D02*
X002584Y000401D01*
X002538Y000448D01*
X002491Y000401D01*
X002444Y000448D01*
X002444Y000588D01*
X002336Y000588D02*
X002336Y000448D01*
X002290Y000401D01*
X002243Y000448D01*
X002196Y000401D01*
X002150Y000448D01*
X002150Y000588D01*
X002631Y000588D02*
X002631Y000448D01*
X001460Y000542D02*
X001413Y000542D01*
X001413Y000588D01*
X001460Y000588D01*
X001460Y000542D01*
X001118Y000588D02*
X001118Y000308D01*
X000431Y000401D02*
X000431Y000682D01*
X004065Y000588D02*
X004065Y000308D01*
X004359Y000448D02*
X004406Y000401D01*
X004546Y000401D01*
X004546Y000682D01*
X004546Y000588D02*
X004406Y000588D01*
X004359Y000542D01*
X004359Y000448D01*
X004654Y000448D02*
X004701Y000401D01*
X004841Y000401D01*
X004841Y000542D01*
X004794Y000588D01*
X004701Y000588D01*
X004701Y000495D02*
X004841Y000495D01*
X004949Y000495D02*
X005042Y000588D01*
X005089Y000588D01*
X005194Y000542D02*
X005194Y000448D01*
X005241Y000401D01*
X005381Y000401D01*
X005489Y000401D02*
X005489Y000448D01*
X005536Y000448D01*
X005536Y000401D01*
X005489Y000401D01*
X005636Y000448D02*
X005683Y000401D01*
X005823Y000401D01*
X005931Y000448D02*
X005978Y000401D01*
X006071Y000401D01*
X006118Y000448D01*
X006118Y000542D01*
X006071Y000588D01*
X005978Y000588D01*
X005931Y000542D01*
X005931Y000448D01*
X005636Y000448D02*
X005636Y000542D01*
X005683Y000588D01*
X005823Y000588D01*
X006226Y000588D02*
X006272Y000588D01*
X006319Y000542D01*
X006366Y000588D01*
X006412Y000542D01*
X006412Y000401D01*
X006319Y000401D02*
X006319Y000542D01*
X006226Y000588D02*
X006226Y000401D01*
X006520Y000401D02*
X006707Y000682D01*
X005381Y000588D02*
X005241Y000588D01*
X005194Y000542D01*
X004949Y000588D02*
X004949Y000401D01*
X004701Y000495D02*
X004654Y000448D01*
D13*
X002061Y001278D02*
X002061Y001525D01*
X002184Y001402D02*
X001937Y001402D01*
X002061Y003828D02*
X002061Y004075D01*
D14*
X003944Y001971D02*
X003946Y001986D01*
X003952Y001999D01*
X003961Y002011D01*
X003972Y002020D01*
X003986Y002026D01*
X004001Y002028D01*
X004016Y002026D01*
X004029Y002020D01*
X004041Y002011D01*
X004050Y002000D01*
X004056Y001986D01*
X004058Y001971D01*
X004056Y001956D01*
X004050Y001943D01*
X004041Y001931D01*
X004030Y001922D01*
X004016Y001916D01*
X004001Y001914D01*
X003986Y001916D01*
X003973Y001922D01*
X003961Y001931D01*
X003952Y001942D01*
X003946Y001956D01*
X003944Y001971D01*
D15*
X004321Y001751D02*
X002901Y001751D01*
X002901Y003611D02*
X004321Y003611D01*
D16*
X003883Y003706D02*
X003650Y003706D01*
X003766Y003706D02*
X003766Y004057D01*
X003650Y003940D01*
X003515Y003998D02*
X003456Y004057D01*
X003340Y004057D01*
X003281Y003998D01*
X003281Y003765D01*
X003340Y003706D01*
X003456Y003706D01*
X003515Y003765D01*
X003153Y003706D02*
X003036Y003706D01*
X003094Y003706D02*
X003094Y004057D01*
X003036Y004057D02*
X003153Y004057D01*
X001611Y004081D02*
X001611Y001281D01*
X004186Y001391D02*
X004302Y001275D01*
X004536Y001275D02*
X004536Y001508D01*
X004536Y001391D02*
X004186Y001391D01*
X004244Y001140D02*
X004186Y001082D01*
X004186Y000965D01*
X004244Y000906D01*
X004478Y000906D01*
X004536Y000965D01*
X004536Y001082D01*
X004478Y001140D01*
X005849Y001815D02*
X005908Y001756D01*
X006024Y001756D01*
X006083Y001815D01*
X006218Y001756D02*
X006451Y001990D01*
X006451Y002048D01*
X006393Y002107D01*
X006276Y002107D01*
X006218Y002048D01*
X006083Y002048D02*
X006024Y002107D01*
X005908Y002107D01*
X005849Y002048D01*
X005849Y001815D01*
X006218Y001756D02*
X006451Y001756D01*
X007086Y003120D02*
X007086Y003295D01*
X007144Y003353D01*
X007261Y003353D01*
X007319Y003295D01*
X007319Y003120D01*
X007436Y003120D02*
X007086Y003120D01*
X007319Y003237D02*
X007436Y003353D01*
X007436Y003488D02*
X007436Y003722D01*
X007436Y003605D02*
X007086Y003605D01*
X007202Y003488D01*
X006489Y004666D02*
X006373Y004666D01*
X006314Y004725D01*
X006179Y004666D02*
X006063Y004783D01*
X006121Y004783D02*
X005946Y004783D01*
X006121Y004783D02*
X006179Y004842D01*
X006179Y004958D01*
X006121Y005017D01*
X005946Y005017D01*
X005946Y004666D01*
X006489Y004666D02*
X006548Y004725D01*
X006548Y004783D01*
X006489Y004842D01*
X006431Y004842D01*
X006489Y004842D02*
X006548Y004900D01*
X006548Y004958D01*
X006489Y005017D01*
X006373Y005017D01*
X006314Y004958D01*
X004898Y004958D02*
X004898Y004900D01*
X004664Y004666D01*
X004898Y004666D01*
X004529Y004666D02*
X004413Y004783D01*
X004471Y004783D02*
X004296Y004783D01*
X004471Y004783D02*
X004529Y004842D01*
X004529Y004958D01*
X004471Y005017D01*
X004296Y005017D01*
X004296Y004666D01*
X004664Y004958D02*
X004723Y005017D01*
X004839Y005017D01*
X004898Y004958D01*
M02*
