G75*
G70*
%OFA0B0*%
%FSLAX24Y24*%
%IPPOS*%
%LPD*%
%AMOC8*
5,1,8,0,0,1.08239X$1,22.5*
%
%ADD10C,0.0000*%
%ADD11R,0.0740X0.0740*%
%ADD12OC8,0.0740*%
%ADD13C,0.0160*%
%ADD14C,0.0256*%
D10*
X000502Y000181D02*
X050702Y000181D01*
X064202Y001181D01*
X064278Y001183D01*
X064354Y001189D01*
X064429Y001198D01*
X064504Y001212D01*
X064578Y001229D01*
X064651Y001250D01*
X064723Y001274D01*
X064794Y001303D01*
X064863Y001334D01*
X064930Y001369D01*
X064995Y001408D01*
X065059Y001450D01*
X065120Y001495D01*
X065179Y001543D01*
X065235Y001594D01*
X065289Y001648D01*
X065340Y001704D01*
X065388Y001763D01*
X065433Y001824D01*
X065475Y001888D01*
X065514Y001953D01*
X065549Y002020D01*
X065580Y002089D01*
X065609Y002160D01*
X065633Y002232D01*
X065654Y002305D01*
X065671Y002379D01*
X065685Y002454D01*
X065694Y002529D01*
X065700Y002605D01*
X065702Y002681D01*
X065700Y002757D01*
X065694Y002833D01*
X065685Y002908D01*
X065671Y002983D01*
X065654Y003057D01*
X065633Y003130D01*
X065609Y003202D01*
X065580Y003273D01*
X065549Y003342D01*
X065514Y003409D01*
X065475Y003474D01*
X065433Y003538D01*
X065388Y003599D01*
X065340Y003658D01*
X065289Y003714D01*
X065235Y003768D01*
X065179Y003819D01*
X065120Y003867D01*
X065059Y003912D01*
X064995Y003954D01*
X064930Y003993D01*
X064863Y004028D01*
X064794Y004059D01*
X064723Y004088D01*
X064651Y004112D01*
X064578Y004133D01*
X064504Y004150D01*
X064429Y004164D01*
X064354Y004173D01*
X064278Y004179D01*
X064202Y004181D01*
X050702Y005181D01*
X000452Y005181D01*
X000422Y005179D01*
X000392Y005174D01*
X000363Y005165D01*
X000336Y005152D01*
X000310Y005137D01*
X000286Y005118D01*
X000265Y005097D01*
X000246Y005073D01*
X000231Y005047D01*
X000218Y005020D01*
X000209Y004991D01*
X000204Y004961D01*
X000202Y004931D01*
X000202Y000431D01*
X000207Y000400D01*
X000215Y000370D01*
X000226Y000342D01*
X000240Y000314D01*
X000258Y000289D01*
X000278Y000265D01*
X000300Y000244D01*
X000325Y000226D01*
X000352Y000210D01*
X000380Y000198D01*
X000410Y000188D01*
X000440Y000182D01*
X000471Y000180D01*
X000502Y000181D01*
D11*
X002302Y001681D03*
D12*
X001302Y001681D03*
X001302Y002681D03*
X002302Y002681D03*
X002302Y003681D03*
X001302Y003681D03*
D13*
X002302Y003681D02*
X004702Y003681D01*
X005202Y003181D01*
X007202Y003181D02*
X007202Y004951D01*
X050693Y004951D01*
X064099Y003958D01*
X064106Y003951D01*
X064193Y003951D01*
X064280Y003945D01*
X064280Y003946D01*
X064382Y003939D01*
X064729Y003837D01*
X065033Y003641D01*
X065270Y003368D01*
X065355Y003181D01*
X007202Y003181D01*
X007202Y003194D02*
X065350Y003194D01*
X065277Y003352D02*
X007202Y003352D01*
X007202Y003511D02*
X065146Y003511D01*
X064989Y003669D02*
X007202Y003669D01*
X007202Y003828D02*
X064743Y003828D01*
X063720Y003986D02*
X007202Y003986D01*
X007202Y004145D02*
X061580Y004145D01*
X059439Y004304D02*
X007202Y004304D01*
X007202Y004462D02*
X057299Y004462D01*
X055159Y004621D02*
X007202Y004621D01*
X007202Y004779D02*
X053018Y004779D01*
X050878Y004938D02*
X007202Y004938D01*
X007202Y002181D02*
X065355Y002181D01*
X065270Y001995D01*
X065033Y001722D01*
X064729Y001526D01*
X064382Y001424D01*
X064280Y001417D01*
X064280Y001418D01*
X064193Y001411D01*
X064106Y001411D01*
X064099Y001404D01*
X050693Y000411D01*
X007202Y000411D01*
X007202Y002181D01*
X007202Y002084D02*
X065311Y002084D01*
X065210Y001925D02*
X007202Y001925D01*
X007202Y001767D02*
X065072Y001767D01*
X064857Y001608D02*
X007202Y001608D01*
X007202Y001450D02*
X064469Y001450D01*
X062571Y001291D02*
X007202Y001291D01*
X007202Y001133D02*
X060431Y001133D01*
X058290Y000974D02*
X007202Y000974D01*
X007202Y000816D02*
X056150Y000816D01*
X054010Y000657D02*
X007202Y000657D01*
X007202Y000499D02*
X051870Y000499D01*
X004952Y001931D02*
X004902Y001931D01*
X004102Y001081D01*
X001902Y001081D01*
X001302Y001681D01*
X002302Y001681D02*
X003952Y001681D01*
X003952Y001931D01*
D14*
X003952Y001931D03*
X004952Y001931D03*
X008702Y001681D03*
X010702Y001681D03*
X012702Y001681D03*
X014702Y001681D03*
X016702Y001681D03*
X018702Y001681D03*
X020702Y001681D03*
X022702Y001681D03*
X024702Y001681D03*
X026702Y001681D03*
X028702Y001681D03*
X030702Y001681D03*
X032702Y001681D03*
X034702Y001681D03*
X036702Y001681D03*
X038702Y001681D03*
X040702Y001681D03*
X042702Y001681D03*
X044702Y001681D03*
X046702Y001681D03*
X048702Y001681D03*
X050702Y001681D03*
X052702Y001681D03*
X054702Y001681D03*
X056702Y001681D03*
X058702Y001681D03*
X060702Y001681D03*
X062702Y001681D03*
X064702Y001681D03*
X053702Y000681D03*
X051702Y000681D03*
X049702Y000681D03*
X047702Y000681D03*
X045702Y000681D03*
X043702Y000681D03*
X041702Y000681D03*
X039702Y000681D03*
X037702Y000681D03*
X035702Y000681D03*
X033702Y000681D03*
X031702Y000681D03*
X029702Y000681D03*
X027702Y000681D03*
X025702Y000681D03*
X023702Y000681D03*
X021702Y000681D03*
X019702Y000681D03*
X017702Y000681D03*
X015702Y000681D03*
X013702Y000681D03*
X011702Y000681D03*
X009702Y000681D03*
X007702Y000681D03*
X005202Y003181D03*
X007702Y003681D03*
X009702Y003681D03*
X011702Y003681D03*
X013702Y003681D03*
X015702Y003681D03*
X017702Y003681D03*
X019702Y003681D03*
X021702Y003681D03*
X023702Y003681D03*
X025702Y003681D03*
X027702Y003681D03*
X029702Y003681D03*
X031702Y003681D03*
X033702Y003681D03*
X035702Y003681D03*
X037702Y003681D03*
X039702Y003681D03*
X041702Y003681D03*
X043702Y003681D03*
X045702Y003681D03*
X047702Y003681D03*
X049702Y003681D03*
X051702Y003681D03*
X053702Y003681D03*
X055702Y003681D03*
X057702Y003681D03*
X059702Y003681D03*
X061702Y003681D03*
X063702Y003681D03*
X064702Y003681D03*
X054702Y004681D03*
X052702Y004681D03*
X050702Y004681D03*
X048702Y004681D03*
X046702Y004681D03*
X044702Y004681D03*
X042702Y004681D03*
X040702Y004681D03*
X038702Y004681D03*
X036702Y004681D03*
X034702Y004681D03*
X032702Y004681D03*
X030702Y004681D03*
X028702Y004681D03*
X026702Y004681D03*
X024702Y004681D03*
X022702Y004681D03*
X020702Y004681D03*
X018702Y004681D03*
X016702Y004681D03*
X014702Y004681D03*
X012702Y004681D03*
X010702Y004681D03*
X008702Y004681D03*
M02*
