G75*
G70*
%OFA0B0*%
%FSLAX24Y24*%
%IPPOS*%
%LPD*%
%AMOC8*
5,1,8,0,0,1.08239X$1,22.5*
%
%ADD10C,0.0000*%
%ADD11R,0.0870X0.0240*%
%ADD12R,0.0512X0.0591*%
%ADD13R,0.0512X0.0630*%
%ADD14R,0.1300X0.0600*%
%ADD15C,0.0160*%
%ADD16C,0.0256*%
%ADD17C,0.0320*%
%ADD18C,0.0240*%
D10*
X000411Y000181D02*
X075111Y000181D01*
X088611Y001181D01*
X088687Y001183D01*
X088763Y001189D01*
X088838Y001198D01*
X088913Y001212D01*
X088987Y001229D01*
X089060Y001250D01*
X089132Y001274D01*
X089203Y001303D01*
X089272Y001334D01*
X089339Y001369D01*
X089404Y001408D01*
X089468Y001450D01*
X089529Y001495D01*
X089588Y001543D01*
X089644Y001594D01*
X089698Y001648D01*
X089749Y001704D01*
X089797Y001763D01*
X089842Y001824D01*
X089884Y001888D01*
X089923Y001953D01*
X089958Y002020D01*
X089989Y002089D01*
X090018Y002160D01*
X090042Y002232D01*
X090063Y002305D01*
X090080Y002379D01*
X090094Y002454D01*
X090103Y002529D01*
X090109Y002605D01*
X090111Y002681D01*
X090109Y002757D01*
X090103Y002833D01*
X090094Y002908D01*
X090080Y002983D01*
X090063Y003057D01*
X090042Y003130D01*
X090018Y003202D01*
X089989Y003273D01*
X089958Y003342D01*
X089923Y003409D01*
X089884Y003474D01*
X089842Y003538D01*
X089797Y003599D01*
X089749Y003658D01*
X089698Y003714D01*
X089644Y003768D01*
X089588Y003819D01*
X089529Y003867D01*
X089468Y003912D01*
X089404Y003954D01*
X089339Y003993D01*
X089272Y004028D01*
X089203Y004059D01*
X089132Y004088D01*
X089060Y004112D01*
X088987Y004133D01*
X088913Y004150D01*
X088838Y004164D01*
X088763Y004173D01*
X088687Y004179D01*
X088611Y004181D01*
X075111Y005181D01*
X000361Y005181D01*
X000331Y005179D01*
X000301Y005174D01*
X000272Y005165D01*
X000245Y005152D01*
X000219Y005137D01*
X000195Y005118D01*
X000174Y005097D01*
X000155Y005073D01*
X000140Y005047D01*
X000127Y005020D01*
X000118Y004991D01*
X000113Y004961D01*
X000111Y004931D01*
X000111Y000431D01*
X000116Y000400D01*
X000124Y000370D01*
X000135Y000342D01*
X000149Y000314D01*
X000167Y000289D01*
X000187Y000265D01*
X000209Y000244D01*
X000234Y000226D01*
X000261Y000210D01*
X000289Y000198D01*
X000319Y000188D01*
X000349Y000182D01*
X000380Y000180D01*
X000411Y000181D01*
D11*
X002581Y001931D03*
X004641Y001931D03*
X004641Y002431D03*
X002581Y002431D03*
X002581Y002931D03*
X004641Y002931D03*
X004641Y003431D03*
X002581Y003431D03*
D12*
X005837Y002581D03*
X006585Y002581D03*
X003635Y001181D03*
X002887Y001181D03*
D13*
X005837Y003381D03*
X006585Y003381D03*
X006585Y004181D03*
X005837Y004181D03*
X004985Y004181D03*
X004237Y004181D03*
D14*
X000911Y003681D03*
X000911Y002681D03*
X000911Y001681D03*
D15*
X001461Y001681D01*
X003961Y002131D02*
X004161Y001931D01*
X004641Y001931D01*
X007611Y001925D02*
X089619Y001925D01*
X089679Y001995D02*
X089443Y001722D01*
X089138Y001526D01*
X088792Y001424D01*
X088690Y001417D01*
X088689Y001418D01*
X088602Y001411D01*
X088516Y001411D01*
X088509Y001404D01*
X075103Y000411D01*
X007611Y000411D01*
X007611Y002181D01*
X089764Y002181D01*
X089679Y001995D01*
X089720Y002084D02*
X007611Y002084D01*
X007611Y001767D02*
X089482Y001767D01*
X089266Y001608D02*
X007611Y001608D01*
X007611Y001450D02*
X088878Y001450D01*
X086980Y001291D02*
X007611Y001291D01*
X007611Y001133D02*
X084840Y001133D01*
X082700Y000974D02*
X007611Y000974D01*
X007611Y000816D02*
X080559Y000816D01*
X078419Y000657D02*
X007611Y000657D01*
X007611Y000499D02*
X076279Y000499D01*
X089679Y003368D02*
X089764Y003181D01*
X007611Y003181D01*
X007611Y004951D01*
X075103Y004951D01*
X088509Y003958D01*
X088516Y003951D01*
X088602Y003951D01*
X088689Y003945D01*
X088690Y003946D01*
X088792Y003939D01*
X089138Y003837D01*
X089443Y003641D01*
X089679Y003368D01*
X089686Y003352D02*
X007611Y003352D01*
X007611Y003194D02*
X089759Y003194D01*
X089556Y003511D02*
X007611Y003511D01*
X007611Y003669D02*
X089399Y003669D01*
X089152Y003828D02*
X007611Y003828D01*
X007611Y003986D02*
X088129Y003986D01*
X085989Y004145D02*
X007611Y004145D01*
X007611Y004304D02*
X083849Y004304D01*
X081708Y004462D02*
X007611Y004462D01*
X007611Y004621D02*
X079568Y004621D01*
X077428Y004779D02*
X007611Y004779D01*
X007611Y004938D02*
X075287Y004938D01*
X004641Y002931D02*
X003961Y002931D01*
X003961Y003881D01*
X004287Y004181D01*
X004237Y004181D01*
X001611Y003931D02*
X001361Y003681D01*
X000911Y003681D01*
X001311Y002681D02*
X002061Y003431D01*
X002581Y003431D01*
X002581Y002931D02*
X003011Y002931D01*
X003261Y002681D01*
X001311Y002681D02*
X000911Y002681D01*
X001961Y002431D02*
X002581Y002431D01*
X002581Y001211D02*
X002611Y001181D01*
X002887Y001181D01*
X003611Y001181D02*
X003635Y001181D01*
D16*
X005261Y001181D03*
X008111Y000681D03*
X010111Y000681D03*
X012111Y000681D03*
X014111Y000681D03*
X016111Y000681D03*
X018111Y000681D03*
X020111Y000681D03*
X022111Y000681D03*
X024111Y000681D03*
X026111Y000681D03*
X028111Y000681D03*
X030111Y000681D03*
X032111Y000681D03*
X034111Y000681D03*
X036111Y000681D03*
X038111Y000681D03*
X040111Y000681D03*
X042111Y000681D03*
X044111Y000681D03*
X046111Y000681D03*
X048111Y000681D03*
X050111Y000681D03*
X052111Y000681D03*
X054111Y000681D03*
X056111Y000681D03*
X058111Y000681D03*
X060111Y000681D03*
X062111Y000681D03*
X064111Y000681D03*
X066111Y000681D03*
X068111Y000681D03*
X070111Y000681D03*
X072111Y000681D03*
X074111Y000681D03*
X076111Y000681D03*
X078111Y000881D03*
X080111Y001181D03*
X082111Y001181D03*
X084111Y001331D03*
X086111Y001431D03*
X087111Y001681D03*
X088111Y001681D03*
X089111Y001681D03*
X085111Y001681D03*
X083111Y001681D03*
X081111Y001681D03*
X079111Y001681D03*
X077111Y001681D03*
X075111Y001681D03*
X073111Y001681D03*
X071111Y001681D03*
X069111Y001681D03*
X067111Y001681D03*
X065111Y001681D03*
X063111Y001681D03*
X061111Y001681D03*
X059111Y001681D03*
X057111Y001681D03*
X055111Y001681D03*
X053111Y001681D03*
X051111Y001681D03*
X049111Y001681D03*
X047111Y001681D03*
X045111Y001681D03*
X043111Y001681D03*
X041111Y001681D03*
X039111Y001681D03*
X037111Y001681D03*
X035111Y001681D03*
X033111Y001681D03*
X031111Y001681D03*
X029111Y001681D03*
X027111Y001681D03*
X025111Y001681D03*
X023111Y001681D03*
X021111Y001681D03*
X019111Y001681D03*
X017111Y001681D03*
X015111Y001681D03*
X013111Y001681D03*
X011111Y001681D03*
X009111Y001681D03*
X003961Y002131D03*
X001961Y002431D03*
X003261Y002681D03*
X005261Y003181D03*
X008111Y003681D03*
X010111Y003681D03*
X012111Y003681D03*
X014111Y003681D03*
X016111Y003681D03*
X018111Y003681D03*
X020111Y003681D03*
X022111Y003681D03*
X024111Y003681D03*
X026111Y003681D03*
X028111Y003681D03*
X030111Y003681D03*
X032111Y003681D03*
X034111Y003681D03*
X036111Y003681D03*
X038111Y003681D03*
X040111Y003681D03*
X042111Y003681D03*
X044111Y003681D03*
X046111Y003681D03*
X048111Y003681D03*
X050111Y003681D03*
X052111Y003681D03*
X054111Y003681D03*
X056111Y003681D03*
X058111Y003681D03*
X060111Y003681D03*
X062111Y003681D03*
X064111Y003681D03*
X066111Y003681D03*
X068111Y003681D03*
X070111Y003681D03*
X072111Y003681D03*
X074111Y003681D03*
X076111Y003681D03*
X078111Y003681D03*
X080111Y003681D03*
X082111Y003681D03*
X084111Y003681D03*
X086111Y003681D03*
X087111Y003681D03*
X088111Y003681D03*
X089111Y003681D03*
X085111Y003831D03*
X083111Y004031D03*
X081111Y004231D03*
X079111Y004431D03*
X077111Y004581D03*
X075111Y004681D03*
X073111Y004681D03*
X071111Y004681D03*
X069111Y004681D03*
X067111Y004681D03*
X065111Y004681D03*
X063111Y004681D03*
X061111Y004681D03*
X059111Y004681D03*
X057111Y004681D03*
X055111Y004681D03*
X053111Y004681D03*
X051111Y004681D03*
X049111Y004681D03*
X047111Y004681D03*
X045111Y004681D03*
X043111Y004681D03*
X041111Y004681D03*
X039111Y004681D03*
X037111Y004681D03*
X035111Y004681D03*
X033111Y004681D03*
X031111Y004681D03*
X029111Y004681D03*
X027111Y004681D03*
X025111Y004681D03*
X023111Y004681D03*
X021111Y004681D03*
X019111Y004681D03*
X017111Y004681D03*
X015111Y004681D03*
X013111Y004681D03*
X011111Y004681D03*
X009111Y004681D03*
D17*
X008111Y004181D02*
X006585Y004181D01*
X005837Y004181D02*
X005837Y003381D01*
X006585Y003381D02*
X006585Y002581D01*
X001961Y001181D02*
X001461Y001681D01*
X001961Y001181D02*
X002611Y001181D01*
X003635Y001181D02*
X005261Y001181D01*
X007611Y001181D01*
X005837Y004181D02*
X004985Y004181D01*
D18*
X003611Y003331D02*
X003011Y003931D01*
X001611Y003931D01*
X004641Y003431D02*
X005011Y003431D01*
X005261Y003181D01*
X003611Y003331D02*
X003611Y001181D01*
X002581Y001211D02*
X002581Y001931D01*
X004641Y002431D02*
X005837Y002431D01*
X005837Y002581D01*
M02*
