%
M48
M72
T01C0.0236
T02C0.0400
%
T01
X7702Y681
X9702Y681
X11702Y681
X13702Y681
X15702Y681
X17702Y681
X19702Y681
X21702Y681
X23702Y681
X25702Y681
X27702Y681
X29702Y681
X31702Y681
X33702Y681
X35702Y681
X37702Y681
X39702Y681
X41702Y681
X43702Y681
X45702Y681
X47702Y681
X49702Y681
X51702Y681
X53702Y681
X54702Y1681
X56702Y1681
X58702Y1681
X60702Y1681
X62702Y1681
X64702Y1681
X52702Y1681
X50702Y1681
X48702Y1681
X46702Y1681
X44702Y1681
X42702Y1681
X40702Y1681
X38702Y1681
X36702Y1681
X34702Y1681
X32702Y1681
X30702Y1681
X28702Y1681
X26702Y1681
X24702Y1681
X22702Y1681
X20702Y1681
X18702Y1681
X16702Y1681
X14702Y1681
X12702Y1681
X10702Y1681
X8702Y1681
X4952Y1931
X3952Y1931
X5202Y3181
X7702Y3681
X9702Y3681
X11702Y3681
X13702Y3681
X15702Y3681
X17702Y3681
X19702Y3681
X21702Y3681
X23702Y3681
X25702Y3681
X27702Y3681
X29702Y3681
X31702Y3681
X33702Y3681
X35702Y3681
X37702Y3681
X39702Y3681
X41702Y3681
X43702Y3681
X45702Y3681
X47702Y3681
X49702Y3681
X51702Y3681
X53702Y3681
X55702Y3681
X57702Y3681
X59702Y3681
X61702Y3681
X63702Y3681
X64702Y3681
X52702Y4681
X50702Y4681
X48702Y4681
X46702Y4681
X44702Y4681
X42702Y4681
X40702Y4681
X38702Y4681
X36702Y4681
X34702Y4681
X32702Y4681
X30702Y4681
X28702Y4681
X26702Y4681
X24702Y4681
X22702Y4681
X20702Y4681
X18702Y4681
X16702Y4681
X14702Y4681
X12702Y4681
X10702Y4681
X8702Y4681
T02
X2302Y3681
X1302Y3681
X1302Y2681
X2302Y2681
X2302Y1681
X1302Y1681
M30
