%
M48
M72
T01C0.0236
%
T01
X8111Y681
X10111Y681
X12111Y681
X14111Y681
X16111Y681
X18111Y681
X20111Y681
X22111Y681
X24111Y681
X26111Y681
X28111Y681
X30111Y681
X32111Y681
X34111Y681
X36111Y681
X38111Y681
X40111Y681
X42111Y681
X44111Y681
X46111Y681
X48111Y681
X50111Y681
X52111Y681
X54111Y681
X56111Y681
X58111Y681
X60111Y681
X62111Y681
X64111Y681
X66111Y681
X68111Y681
X70111Y681
X72111Y681
X74111Y681
X76111Y681
X78111Y881
X80111Y1181
X82111Y1181
X84111Y1331
X86111Y1431
X87111Y1681
X88111Y1681
X89111Y1681
X85111Y1681
X83111Y1681
X81111Y1681
X79111Y1681
X77111Y1681
X75111Y1681
X73111Y1681
X71111Y1681
X69111Y1681
X67111Y1681
X65111Y1681
X63111Y1681
X61111Y1681
X59111Y1681
X57111Y1681
X55111Y1681
X53111Y1681
X51111Y1681
X49111Y1681
X47111Y1681
X45111Y1681
X43111Y1681
X41111Y1681
X39111Y1681
X37111Y1681
X35111Y1681
X33111Y1681
X31111Y1681
X29111Y1681
X27111Y1681
X25111Y1681
X23111Y1681
X21111Y1681
X19111Y1681
X17111Y1681
X15111Y1681
X13111Y1681
X11111Y1681
X9111Y1681
X3961Y2131
X1961Y2431
X3261Y2681
X5261Y3181
X8111Y3681
X10111Y3681
X12111Y3681
X14111Y3681
X16111Y3681
X18111Y3681
X20111Y3681
X22111Y3681
X24111Y3681
X26111Y3681
X28111Y3681
X30111Y3681
X32111Y3681
X34111Y3681
X36111Y3681
X38111Y3681
X40111Y3681
X42111Y3681
X44111Y3681
X46111Y3681
X48111Y3681
X50111Y3681
X52111Y3681
X54111Y3681
X56111Y3681
X58111Y3681
X60111Y3681
X62111Y3681
X64111Y3681
X66111Y3681
X68111Y3681
X70111Y3681
X72111Y3681
X74111Y3681
X76111Y3681
X78111Y3681
X80111Y3681
X82111Y3681
X84111Y3681
X86111Y3681
X87111Y3681
X88111Y3681
X89111Y3681
X85111Y3831
X83111Y4031
X81111Y4231
X79111Y4431
X77111Y4581
X75111Y4681
X73111Y4681
X71111Y4681
X69111Y4681
X67111Y4681
X65111Y4681
X63111Y4681
X61111Y4681
X59111Y4681
X57111Y4681
X55111Y4681
X53111Y4681
X51111Y4681
X49111Y4681
X47111Y4681
X45111Y4681
X43111Y4681
X41111Y4681
X39111Y4681
X37111Y4681
X35111Y4681
X33111Y4681
X31111Y4681
X29111Y4681
X27111Y4681
X25111Y4681
X23111Y4681
X21111Y4681
X19111Y4681
X17111Y4681
X15111Y4681
X13111Y4681
X11111Y4681
X9111Y4681
X5261Y1181
M30
